<svg width="52" height="18" viewBox="0 0 52 18" fill="none" xmlns="http://www.w3.org/2000/svg">
<g clip-path="url(#clip0_42_90)">
<path d="M27.8461 0.182098C27.7447 0.182098 27.5822 0.195587 27.5281 0.330467C26.9055 2.73133 26.1544 6.94632 25.8364 9.72482C25.8025 9.72482 25.7755 9.72482 25.7552 9.72482C25.7552 9.72482 25.3898 11.3434 24.6928 11.3434C24.1785 11.3434 24.0296 10.6151 24.0635 10.1227C24.0973 8.96952 24.774 5.63125 24.8416 4.93662C24.8552 4.65337 23.9823 4.14082 23.3665 4.14082C23.1026 4.14082 22.8996 4.20827 22.886 4.35663C22.6018 6.00891 21.5123 9.6237 20.4162 11.0737L20.1996 11.0062C20.0845 9.35389 20.7274 6.76424 21.3432 4.86243C21.2079 4.64662 20.6124 4.31617 19.9357 4.31617C19.1575 4.31617 18.129 8.57835 18.129 10.5072C18.129 10.642 18.1493 10.7702 18.1831 10.905C17.9936 11.3367 17.7026 11.7953 17.3373 11.7953C16.9042 11.7953 16.7079 11.4176 16.7079 10.6218C16.7079 8.90208 17.635 6.39331 17.8651 4.72755C17.9327 4.20152 16.8907 3.73618 16.0786 3.73618C15.8282 3.73618 15.5508 3.80362 15.4831 3.93176C14.5696 5.59752 14.0283 7.58027 13.3989 9.29997H13.3313C13.3989 8.07935 13.6764 6.3596 13.7982 5.27381C13.8659 4.7815 13.02 4.36337 12.1606 4.36337C11.9779 4.36337 11.6802 4.39709 11.6125 4.52523C11.0982 5.67845 10.5163 7.43189 9.87341 9.13135H9.80577C9.83959 8.13999 10.3336 6.15728 10.699 4.63988C10.7667 4.37686 9.95463 3.96548 9.29146 3.96548C8.85165 3.96548 8.01252 7.38469 7.87045 10.1497C6.82834 10.1362 5.2043 10.4128 3.09304 10.9118C3.19455 9.75857 3.30958 8.65258 3.47199 7.58027C4.43288 7.43189 5.54264 7.2835 6.49 7.26326C6.7742 7.26326 6.78774 7.034 6.78774 6.91936C6.78774 6.78447 6.44263 6.25844 6.14489 5.97519C5.94865 5.7931 5.3667 5.86054 4.58852 5.90775L3.76297 5.98867C3.94566 4.99731 4.17574 4.00594 4.43964 3.03481C5.35317 2.88644 6.11105 2.77179 7.00428 2.70435C7.00428 2.70435 6.86893 3.02132 6.86893 3.21689C6.85541 3.39898 7.38324 3.36526 7.79601 3.18317C7.99221 3.06853 9.06816 2.32669 9.06816 2.21204C9.06816 2.07716 8.70272 1.32184 8.62157 1.24091C8.18848 0.829525 7.52531 0.97789 6.91634 1.04533C6.46969 1.09254 5.77271 1.18021 4.96069 1.32857L5.07573 1.01161C4.75769 0.762083 3.9998 0.613715 3.41785 0.546276C3.22162 0.890217 3.03891 1.28811 2.8562 1.73322C2.09155 1.9153 1.29983 2.13112 0.589315 2.36041C0.244206 2.47506 1.06976 3.68223 1.51638 3.6013C1.80058 3.5541 2.06449 3.48665 2.31486 3.43945C2.06449 4.36337 1.84795 5.36823 1.65171 6.39331C1.09006 6.54169 0.609616 6.69005 0.426911 6.8047C0.142704 7.00024 0.805855 8.05911 1.35397 7.95792H1.40134C1.21863 9.1651 1.06976 10.352 0.988562 11.4244L0.0953363 11.6536C-0.270072 11.7548 0.49458 12.989 1.0427 12.8946L1.1442 12.8608C1.69231 13.1238 2.89681 13.5555 2.93064 13.1777L2.96448 12.5168C5.00806 12.1257 6.60503 11.8627 7.9516 11.775C8.16139 12.5911 8.68921 13.0497 9.49445 13.0497C9.90723 13.0497 10.2388 12.7866 10.2388 12.7866C10.2727 11.3501 11.0508 9.02344 11.5651 7.65443H11.7005C11.5651 8.87512 11.4704 10.3588 11.4501 11.6334C11.4366 12.8069 11.8493 13.5352 12.9253 13.5352C13.3719 13.5352 13.6899 13.3059 13.6899 13.3059C13.7237 11.8694 14.502 8.99648 15.1786 7.62747H15.3613C15.1786 8.42325 14.8673 10.0014 14.847 10.6623C14.7997 11.9976 15.2801 13.1373 16.8704 13.1373C17.838 13.1373 18.5079 12.6113 18.8733 12.0246C19.3334 12.4899 19.9289 12.8069 20.4162 12.8069C21.3771 12.8069 22.1079 11.1411 22.3718 10.379L22.5071 10.3925C22.4394 11.3367 22.6695 12.618 24.2462 12.618C24.774 12.618 25.2544 12.3888 25.6402 12.065C25.6334 12.2673 25.6469 12.4292 25.701 12.5236C25.8025 12.8069 27.474 13.4812 27.704 13.198C27.7176 12.7529 27.7717 12.3078 27.8055 11.8627C28.0897 8.26142 28.78 4.49825 29.5311 1.01836C29.5852 0.728365 28.3401 0.182098 27.8461 0.182098Z" fill="white"/>
<path d="M33.3611 6.44052C33.8889 6.44052 35.134 5.53009 35.134 4.9029C35.134 4.60616 34.5385 3.79688 34.3355 3.79688C34.0175 3.79688 29.0709 5.05126 28.983 5.74589C28.9356 6.17751 29.2333 7.10144 29.4972 7.33071C30.6408 7.47909 32.3799 8.65259 32.3799 10.2374C32.3799 11.276 31.8994 11.9841 30.9521 11.9841C30.0927 11.9841 29.8559 11.2894 29.8762 11.1411C29.8762 11.0062 30.607 9.73835 30.6205 9.23927C30.6205 9.1044 30.0047 8.54468 29.4296 8.54468C28.6852 8.54468 28.1844 9.73162 28.1844 10.5072C28.1844 11.8087 29.9236 13.461 31.6829 13.461C33.1242 13.461 34.3964 12.7529 34.3964 10.8511C34.3964 7.97817 31.0198 6.67657 31.0198 6.67657L31.0062 6.60913C31.1551 6.47424 32.3325 5.99542 32.8806 5.98193C33.0972 5.99542 33.1446 6.44052 33.3611 6.44052Z" fill="white"/>
<path d="M37.4348 3.37201C38.91 3.37201 39.3904 2.29971 39.3904 1.71973C39.3904 1.22742 39.0453 1.0251 38.6935 0.87673C38.8558 0.296747 38.5107 0.182098 37.9288 0.182098C36.7513 0.182098 36.4536 1.71973 36.4536 2.21204C36.4604 3.04155 37.0694 3.37201 37.4348 3.37201Z" fill="white"/>
<path d="M49.067 4.08012C48.5865 4.08012 48.0046 8.457 47.8557 9.06392C47.673 9.75858 47.0099 11.276 46.5159 11.276C46.2317 11.276 46.1843 10.8983 46.1843 10.4802C46.252 8.61211 46.8272 6.69679 47.3955 4.90289C47.3617 4.50499 46.685 4.14081 46.0896 4.14081C46.0422 4.14081 46.0016 4.14081 45.9542 4.14756C45.7986 3.94524 45.6024 3.79687 45.3723 3.79687C44.7768 3.79687 43.7956 4.02617 42.3746 4.22849C42.6385 3.13596 43.0851 1.686 43.0851 0.876721C43.0851 0.296736 42.5032 0 41.6099 0C41.2783 0 41.0483 0.06744 41.0483 0.06744C40.8859 0.863234 40.4866 3.00782 40.2024 4.44429C38.6122 4.72754 38.6934 4.69382 38.6934 5.03776C38.6934 5.35473 38.9235 5.92797 39.2077 6.14379L39.7896 6.60912C39.6882 7.33749 39.431 8.38277 39.1806 9.62371C38.9709 9.58323 38.8017 9.59668 38.8017 9.59668C38.7543 10.2239 38.3686 11.8897 37.4415 11.8897C37.1912 11.8897 36.9949 11.6267 37.0084 11.0466C37.022 9.83953 37.8205 6.85191 38.2671 5.32101C38.4633 4.64661 36.7243 4.39709 36.4942 4.39709C36.3453 4.39709 36.1762 4.43081 36.1152 4.61289C35.7025 5.78635 34.7754 9.4686 34.7754 11.0332C34.7754 12.5034 35.5198 13.2115 36.7784 13.2115C37.5634 13.2115 38.2197 12.9215 38.7273 12.4966C38.6731 12.9485 38.6393 13.3868 38.6393 13.7712C38.6393 14.8435 39.0859 15.6056 40.1144 15.6056C41.143 15.6056 43.6603 13.461 43.6603 10.0283C43.6603 8.14678 43.146 7.16887 42.0363 6.01565L42.0498 5.93472C42.9972 5.79984 44.0595 5.65822 44.946 5.55706C44.4791 6.9868 44.1407 8.62555 44.1407 10.2239C44.1407 11.195 44.4588 12.5978 45.961 12.5978C46.6715 12.5978 47.1858 12.0718 47.4497 11.5592C47.3009 12.8136 46.7392 14.9245 46.7392 15.5516C46.7392 15.8147 46.7866 15.8821 46.9557 15.963C47.2873 16.1114 48.1806 16.4284 48.4445 16.4284C48.6272 16.4284 48.7625 16.4149 48.8098 16.0642C48.9249 14.4928 49.473 11.0804 49.7843 9.40789C49.967 8.25462 50.8129 6.37308 50.8129 4.80173C50.8061 4.44429 49.879 4.08012 49.067 4.08012ZM42.3408 10.5207C42.2731 13.0631 41.1633 14.2029 40.9468 14.2029C40.7505 14.2029 40.6964 13.9398 40.7167 13.5756C40.7302 13.198 40.7979 12.7192 40.8521 12.3213C41.116 10.3385 41.4949 8.37605 41.6167 7.46564C42.2731 8.3423 42.3746 9.54276 42.3408 10.5207Z" fill="white"/>
<path d="M50.9323 13.8384C51.518 13.8384 51.9795 13.3602 51.9795 12.796V12.7903C51.9795 12.226 51.5237 11.7535 50.9381 11.7535C50.3524 11.7535 49.8909 12.2318 49.8909 12.796V12.8017C49.8909 13.3659 50.3467 13.8384 50.9323 13.8384ZM50.9323 13.7239C50.4072 13.7239 50.012 13.3086 50.012 12.8017V12.796C50.012 12.2891 50.4102 11.8681 50.9381 11.8681C51.4631 11.8681 51.8584 12.2833 51.8584 12.7903V12.796C51.8584 13.3029 51.4603 13.7239 50.9323 13.7239ZM50.4765 13.3172H50.7852V12.9822H50.915H50.9208L51.1458 13.3172H51.5007L51.2353 12.9335C51.3737 12.8762 51.4631 12.7645 51.4631 12.5955V12.5898C51.4631 12.4838 51.4314 12.4008 51.3679 12.3377C51.2901 12.2604 51.1688 12.2146 50.9929 12.2146H50.4765V13.3172ZM50.7852 12.7445V12.4781H50.9842C51.0881 12.4781 51.1544 12.521 51.1544 12.6098V12.6156C51.1544 12.6958 51.0939 12.7445 50.9871 12.7445H50.7852Z" fill="white"/>
</g>
<defs>
<clipPath id="clip0_42_90">
<rect width="52" height="17.6306" fill="white"/>
</clipPath>
</defs>
</svg>
