<svg xmlns="http://www.w3.org/2000/svg" viewBox="0 0 600 573.37"><defs><style>.cls-1{fill:#f2f2f2;}.cls-2{fill:#fff;}</style></defs><g id="Capa_2" data-name="Capa 2"><g id="Capa_1-2" data-name="Capa 1"><path class="cls-1" d="M311.27,225c.67,1.6,4.48,2.67,6.67,1.53a17.64,17.64,0,0,1,9.84-1.67c5.26.35,10.44-4.79,10.79-10.1,0-.51.16-1.09-.14-1.48-3.22-4.15-3.19-10.1-7.61-13.62a14.63,14.63,0,0,1-3-3.85c-1.41-2.25-1.19-4.06,1.53-5.1a16.43,16.43,0,0,1,3.2-.19,29.15,29.15,0,0,1,6.34-.54l.17-.12.16.14h0l7.9-1.73a6.44,6.44,0,0,1,2-2.86c2.38-1.93,5-.86,9-3.1a6,6,0,0,0,1.49-1c4.29-4.47,8.6-8.81,9-15.42.26-4.24,1.3-8.7-2.35-12.21s-3.24-9.52.66-13.53l2.17-2.47a15.73,15.73,0,0,0,1.67-2.36,16.47,16.47,0,0,0,1-2.13c.08-.62.18-1.4.24-2.3,0,0,.13-1.64.12-3.23,0-3.53-1.2-5.69-1.5-10.18a29.11,29.11,0,0,1,0-4.72c.26-2.93,1-4.64,1.07-7.83,0-1.75.4-3.19,2-4.13,2.26-2.11,4.62-4.13,6.78-6.35,1.34-1.37,4.54-1.21,8.79-2l1.48-.26a8.28,8.28,0,0,0-.4-3.23c-.45-1.31-.92-1.51-1.66-3-1.27-2.56-.64-3.55-1.64-4.13-1.2-.68-3.06-.39-4.61.56a16.94,16.94,0,0,1-2.71,1.32c-1.78,1.38-4.52,1.17-6.09,3.11-2.35,2.89-3.2,2.95-5.45,3.76-3,1.07-3.81-.11-6.66,1.23a9.83,9.83,0,0,1-3.4.94,4.36,4.36,0,0,1-1.9-.28,8.15,8.15,0,0,1-3.17-2c-4.41-3.23-8.42-6.93-12.48-10.57a11.45,11.45,0,0,0-7.3,2.26,4.7,4.7,0,0,1-4.87.87c-3.82-1.11-4.95.68-7.15-.63-.62-.37-1.19-.56-1.86-1-1.38-.94-1.55-1.46-1.56-1.46a1.4,1.4,0,0,0-.7-.48,1.06,1.06,0,0,0-.37,0c0,.55.06,1.44.1,2.54.76,21.1.11,36.61-.14,43.79-.34,9.77-.48,28.9-.76,67.17-.11,14.83,0,21.77-3.18,26.77C312.13,220.62,310.52,223.22,311.27,225Z"/><path class="cls-1" d="M246.57,258.62c1.71,1.44,1.87,4.55-.23,6.75-1.27.6-2.66.93-3.93,1.56a5.28,5.28,0,0,1-1,.29c-1.11.38-2.62-.29-3.27,1.27a4.37,4.37,0,0,0,.51,2.38,13.84,13.84,0,0,1,.75,3.77c1,5.24,1.56,8,2.78,10.33.71,1.36,1.67,3,1.67,3,.88,1.54.84,1.36,1.08,1.85,1.07,2.18.7,3.18,1.57,4.91a7.65,7.65,0,0,0,1.95,2.45c.86,0,2.15,0,3.73,0,8.76-.2,15.43-.36,17.63-4,1.54-2.56-.39-4.71,1.54-6.94,1.19-1.38,3.16-1.52,7-2,5.43-.69,11.33-1.19,16.09,3,2.53,1.4,5.22.63,7.86.63,3.35,0,6.71-.16,10,.07,1.65.11,3.6.09,3.81,2.48h.16l.06,0a2.44,2.44,0,0,1,1.77,1.26c.2.23.4.47.58.72a4.3,4.3,0,0,1,.44.95c.76,2-.53,4.4,1.29,6.16a3.69,3.69,0,0,0,1.39.57c.61,0,1.21.09,1.82.17a11.07,11.07,0,0,1,3.5.58c.81.15,1.61.29,2.42.39a5.69,5.69,0,0,1,2.8,1.94c1.2,2.07-.52,4.44.15,6.08s3.6,2,4.67,4c.61,1.13.77,1.34,1.53,2.58,1.95,3.21,3.49,3.13,8.39,7.84,0,0,1.63,1.37,3.67,3.22s3.66,2.75,6.55,1.14c2.54-1.42,4.84,0,5.76,3,0,.17,0,.33,0,.49a5.33,5.33,0,0,1,.74,2.91c.13.19.25.38.37.58a7.11,7.11,0,0,1,.4.89,4.6,4.6,0,0,0,1.45,2.35,7.24,7.24,0,0,1,.73.62,14.31,14.31,0,0,0,2.78,2c1.14.84,2.45,1.51,3.09,2.88a4.85,4.85,0,0,1,.17,1.69c.23,1.63-.28,3.32-.33,5a3.94,3.94,0,0,0,.87,1.63,45.9,45.9,0,0,0,6.07,6.62c2.52,2.22,5.23,3.44,8.46,1.24a5.44,5.44,0,0,1,2.5-.74,12.48,12.48,0,0,1,1.73,0,2.07,2.07,0,0,1,1.61.23c.37.1.74.21,1.11.35a19.14,19.14,0,0,1,6.58,4,7.34,7.34,0,0,1,2.3,3.65,14.48,14.48,0,0,1,.35,3.53,3.91,3.91,0,0,0,.68,2.1c2.71,3,5.66,5.63,9.61,6.91A10.46,10.46,0,0,1,418,382c2.85,2.49,5.73,4.77,9.85,4.66,1.52-.05,2.44,1.74,4,1.77a1.75,1.75,0,0,0,1-.88,1.92,1.92,0,0,1,.12-.25c.16-.36.29-.75.48-1.09a4.34,4.34,0,0,1,1.78-1.82h0c.72-.27-.14-3.49-.13-6.07a12.87,12.87,0,0,1,1.54-5.89,1.9,1.9,0,0,0-.68-1.32,7.56,7.56,0,0,1-1.58-.73,3.79,3.79,0,0,1-1.17-.59,5.65,5.65,0,0,1-2.55-3.26,8.53,8.53,0,0,1,.13-3.37,16.84,16.84,0,0,1,.49-2.2c1.29-1.82,1.27-4.09,2-6.1a4.05,4.05,0,0,1,.93-1.38c.71-.43,1.29-1.18,2-1.63a3.38,3.38,0,0,0,.9-.69,9.54,9.54,0,0,0,2.06-2.87c.17-.34.3-.62.38-.8.11-.48.23-1,.38-1.42l.18-1.12a3.85,3.85,0,0,1,.37-.92c.29-.43.62-.84.94-1.26.09-.21.18-.41.28-.62a4.74,4.74,0,0,0,.62-3.24c-.22-.89-.65-.54-1.21-1.83-.45-1-.5-2-1.36-2.54l-.14-.07a30,30,0,0,1-4.42-15.16A2.78,2.78,0,0,0,435,319a7.61,7.61,0,0,0-1.32-1.28s-1.37-1.27-2.88-2.39a99.63,99.63,0,0,0-15.91-9,8.91,8.91,0,0,1-3.05-2,9.11,9.11,0,0,1-1.77-2.52c-.74-1.56-2.17-2.13-3.1-.38-1.55,2.91-4,3.58-6.89,3.53-2,0-3.26,1.89-5.25,1.49-2.39-.74-1.26-2.92-1.82-4.4a9.44,9.44,0,0,0-3.58-3.57h0a9.85,9.85,0,0,1-1.7-.54,14.67,14.67,0,0,1-3.09-1.89,7.39,7.39,0,0,0-4.9-.95h0c-4.06.75-6.18-1.52-7.57-4.89-.55-1.36-1-2.75-1.55-4.12L369.7,285h0c-1.91-.89-4.27-.24-6-1.76L358.83,281l-.27-.12-.17-.08a14.88,14.88,0,0,1-4.53-3c-1.1-.27-.84-1.51-1.48-2.1h0c-1.69-1.14-1.58-3.43-3-4.71-1.26-.07-1.48-1.38-2.31-2h0a10.63,10.63,0,0,1-2.21-4c-4.19,1-8.66-.46-12.76,1.41-4,.41-4.88-.35-4.29-4.09a9,9,0,0,1,4.6-6.52,13.92,13.92,0,0,0,5.64-5.33c1.12-2.28,2-4.27-.37-6.67a2.11,2.11,0,0,1-.64-1.07c-.69-1.61,1-2.78,1.87-5.92.68-2.4.29-3.94,1.68-5.15a6.37,6.37,0,0,1,4.46-1.49,4.71,4.71,0,0,0,1-.19c4.17-.71,6.2-1.88,9.67-2.32,3.81-.49,4.39.46,6.37-.47a7.23,7.23,0,0,0,3.39-4,11.21,11.21,0,0,0,.36-3.1,11.39,11.39,0,0,0-.66-3.51l.06.05h0l-1.81-3-4.26-4.34a16.75,16.75,0,0,1-4-3.79,17,17,0,0,1-3-6.47,16.74,16.74,0,0,1-.38-5c.25-.76.43-1.55.62-2.33a9.23,9.23,0,0,1,.58-2.55c.42-1.13.3-2-1.17-2.08-1.3,1.35-2.07,3.27-4.12,3.82h0a66.49,66.49,0,0,1-13.27,2.19,2.44,2.44,0,0,0-1.13.83c0,2.76,2.24,4.17,3.74,5.83,3.32,3.68,3.58,8.83,6.57,12.62.63.8.11,2-.21,2.92q-.39,1-.75,2a7.15,7.15,0,0,1-1,3.09c-.14.55-.28,1.1-.4,1.65-1.71,4.67-6.38,5.26-10,7.27a4.75,4.75,0,0,1-.49.17c-1,1.11-2.54.71-3.82.18a13.87,13.87,0,0,0-1.54-.51,5.7,5.7,0,0,0-2.61.28,23.83,23.83,0,0,0-3.51,2.08c-1.59.94-3.38,1.43-4.92.34-3.11-2.19-6-1.77-8.93.16a5.41,5.41,0,0,1-2.13.65,10.28,10.28,0,0,0-2.08.38c-1.38.39-1.9.86-3.72,1.44a4.82,4.82,0,0,1-1.36.39,8.35,8.35,0,0,0-5.39,2.15c-2.15,1.94-5.92,2.12-8.33,1.8-2.18-.3-2.85-1-4.56-1.69a17.14,17.14,0,0,0-2.26-.61c-2.19-.49-3.59-.71-4.8-.09a5.06,5.06,0,0,1-1.4.58c-.24.06-.61,0-1.34.13a13.5,13.5,0,0,1-2.38.08h-2.16a26.85,26.85,0,0,0-4.21.32,5.53,5.53,0,0,0-2.38,1.32,17.49,17.49,0,0,1-3.07,3.07,10.39,10.39,0,0,1-2.18,1.18c-1,.72-2.23,1.26-3.27,2-.07.09-.2.25-.33.45a4.66,4.66,0,0,0-.72,1.81c-.37,1.9-3.79,4-3.67,6.5C243.63,254.8,242.93,255.55,246.57,258.62Z"/><path class="cls-1" d="M458.94,226.46c-6.62-3.34-34.19,0-39.9,0a15.9,15.9,0,0,1-8.74-2.71l-1.29-.52c-5.4-2.21-6.39-3.17-10.65-5.09s-6.07-2.21-9.76-4.58c-.5-.32-.91-.6-1.17-.78a8.05,8.05,0,0,1-1.33-.49c-.34-.16-.51-.27-1.8-1.05l-1.06-.62c-1.48-.87-3.13-1.66-3.48-1.82-3.56-1.7-8.22-3.47-8.22-3.47-9.06-3.82-11.7-4.45-12.47-5.68a4.09,4.09,0,0,0-1.73-1.5c-.24-.11-.78-.33-1.08-.1s-.25.41-.19.91c0,.31.08.62.11.92.27,1,.57,2.07.85,3.1.61,3.58,4.33,4.38,6.19,6.89.91,1.24,2.24,2.18,2.85,3.68,3.44,4.22,3.47,11.54.05,14.46v-.06h0l-4.59,2.14-4.45.62-4,.56-1.94.27-1.63.23-1.54.61c-1,.39-1.33.46-1.91.67-1.7.64-2.54,1-3.05,1.69a4,4,0,0,0-.64,2.65,4.39,4.39,0,0,1-.63,2.83c-.13.25-.39.66-.61,1-.67,1.1-.79,1.19-.78,1.43,0,.54.34.94,1.51,1.68,1.78,1.11,2.09,2.82.44,4.25s-1.8,3.74-3.38,5.15c-1.87,3.45-6.19,4.2-8.24,7.45.13,1.14-.52,2.65,1.39,2.94l.9-.68h0a10.37,10.37,0,0,1,3.43-.89c3.13-.24,4.77,1.11,6.14.05.72-.55,1.18-1.64,2.26-2a1.61,1.61,0,0,1,.8-.07,1.83,1.83,0,0,1,1.52,2.22l.87,2.89h0a6.66,6.66,0,0,1,1.69,2.84c1.12.27,2.48.15,2.8,1.73h0c.5,1,1,2,1.49,3a3.32,3.32,0,0,1,2.45,3.42,1.57,1.57,0,0,0,.49.76,1.6,1.6,0,0,0,.88.37,3.71,3.71,0,0,1,2.9,1.47l1.63.73h0l6.8,2.3c1.83-.24,3.23.28,3.92,2.1a3.64,3.64,0,0,1,1.41,3.19c0,.24,0,.48,0,.73a9.58,9.58,0,0,0,.87,1.67,3,3,0,0,0,.74.84,2.41,2.41,0,0,0,1,.44q2.07.48,4.29,1.11c1.32.37,2.58.77,3.78,1.17.4.19,1,.48,1.66.85a29.17,29.17,0,0,1,5.59,3.34,12.64,12.64,0,0,1,2.72,3.42,4.24,4.24,0,0,0,1.71,1.25,2.63,2.63,0,0,0,1.75.25c2.76-.63,5.32-1.13,7.16-4,1.7-2.61,4.57-1.76,5.84.61,2,3.74,5.44,5,8.86,6.45a25.21,25.21,0,0,1,7.62,4.52c1.76.48,2.75.23,2.42-2a.41.41,0,0,0,0-.11,25.09,25.09,0,0,1-.44-5.73c0-.4-.07-.8-.12-1.2a4.08,4.08,0,0,1,.19-2.23c0-.23,0-.46,0-.68,1.39-6.34,4-11.8,10-15.17a8.25,8.25,0,0,0,4.08-6.85,10.38,10.38,0,0,1,2-5.61c5-6.42,9.55-13.21,15.17-19.13a2.6,2.6,0,0,0,1.17-1.67c-.08-.69-.29-1.38-.39-2.07a8.3,8.3,0,0,1-.7-1.16,6,6,0,0,1-.41-1.76c.09-1.3-.53-2.63-.61-3.93a7.41,7.41,0,0,0-.28-1.43c-.59-2-1.68-2.75-1.51-4.14a2.48,2.48,0,0,1,.1-.55,2.12,2.12,0,0,1,.25-.47c2.65-3.62,2.4-5.41,2.4-5.41C461.17,227.62,459.61,226.8,458.94,226.46Z"/><path class="cls-1" d="M569.85,288.28S429.39,114.77,429.42,114.73c.36-.4-1.09-2.26-1.38-2.65-2.92-3.86-5.71-14-6.1-15.41-.46-1.71-1.06-4.11-1.56-7.06-.11-.32-.27-.8-.46-1.38-.68-2.09-1-3.16-1.23-4a20.46,20.46,0,0,1-.46-3A69.76,69.76,0,0,0,416.07,74c-1.42-2.13-1-4.93-2.59-7-2.55-3.74-3.43-8.55-7.78-12.32,0,5-.47,9.16.7,13.29a8.77,8.77,0,0,1,.39,3.26,8,8,0,0,1-4.32,6.51,14.37,14.37,0,0,1-3.89,1.36,17.4,17.4,0,0,1-4.45.26,2,2,0,0,0-2.77.83c-.17.53,0,1.17.67,2a2.17,2.17,0,0,1,.32,1.8c-1.12,3.24.56,5.14,3,6.87.95.7,2.14,1.57,1.56,3.09s-2,1.23-3.22,1.32a24.5,24.5,0,0,1-4.49.33c-6.67-.71-9.48,5.25-14.1,8.05-.55.33-.39,1.58-.69,3.54a64.31,64.31,0,0,0-.71,9.58c.53,3.83.93,6.08,1.24,7.5a15.07,15.07,0,0,1,.39,2.92,15.23,15.23,0,0,1-.12,2.4,7.8,7.8,0,0,1,0,1.53c-.17,1.78-.84,2.79-2.11,5.79a10.8,10.8,0,0,0-.73,1.8c-.68,2.47-3.14,2.94-4.49,5.92a7.53,7.53,0,0,0-.48,5,6.27,6.27,0,0,0,1.14,2.16c4.8,6.08,3.35,12.71,1.68,19.28-1.39,5.51-5.74,9-9.42,12.92a14.54,14.54,0,0,0-3.74,4.58,6.2,6.2,0,0,0-.94,3.5,5.12,5.12,0,0,0,1,2.51,36.58,36.58,0,0,0,9.07,4.43c1.67.65,3.47,1,4.86,2.3l1.14.84,3.7,1.53c4.35,1.8,5.42,2.24,7,3,.93.48,2.27,1.2,3.83,2.2,7.74,3.07,15.16,6.8,22.56,10.57l4.46,2.34a6,6,0,0,0,.79.38c3.78,1.63,7.7.24,9-.18,1.05-.33,5.43-.54,14.19-1,7.87-.38,13.17-.61,17,.53a31.77,31.77,0,0,0,4.64,1,23.78,23.78,0,0,0,4.25.15c.83,0,3.1-.14,3.8,1.07.4.69.13,1.77-.72,3.34-.75,1-1.51,2-2.27,3-.14.5-.37,1.25-.68,2.15-.93,2.73-1.41,3.46-1.47,4.78a6.44,6.44,0,0,0,.63,3h0a11.18,11.18,0,0,1,1.52,5.94l0,1.51a5,5,0,0,1,1.05,2.79,5.82,5.82,0,0,1-1.65,3.8c-4.84,5.75-3.41,7-13.38,18.16-.41.46-.75.84-.94,1-.92,1.68-.54,3.61-1,5.36a15.09,15.09,0,0,1-1.31,3.76,11.42,11.42,0,0,1-3.81,3.87s-2.29,1.63-7.05,7.23c-2.09,2.45-4.24,7.37-2.1,18.16,1.13,2.38,3.18,4.27,3.72,7a3.73,3.73,0,0,1,.28.66c1.8,4.1,2.68,8.47,3.67,12.8,2.29,5.39,8.38,5.31,12.29,8.41,1.43,1.13,8.35-2.1,9.83-4.28.85-1.28,1.46-2.72,3.41-1.78a23.49,23.49,0,0,1,6.14,4.27c1.63.74,3.45,1.09,4.82,2.35l4.91,2.42h4.53l.19-.2.24.11h0c3.14-2.06,5.54-.57,7.79,1.64.3.74.6,1.49.89,2.23.15.16.4.42.72.73,5.06,5,9,5.2,12.7,9a16.73,16.73,0,0,1,3.07,4.46c.38,1.5.66,3,1,4.53.11.45.21.9.3,1.36.18.75.37,1.49.61,2.22a8.85,8.85,0,0,1,.31.91,5,5,0,0,0,1.1,2.39c.22.2.44.39.67.57a9.11,9.11,0,0,0,3,1.19c4.54.77,6.38,4.09,7.57,8,.34,2.52,1.9,2.95,3.58,3.14H532a7.39,7.39,0,0,0,3.18-.21,8.34,8.34,0,0,0,.07-1c0-1.22.05-2.44.06-3.67a26.22,26.22,0,0,1-.94-3c-.66-10.88-1.21-21.76-1-32.64.15-8-1.19-16-.8-24,.13-2.73.45-5.27,3-6.86.47-.18.94-.35,1.42-.5a1.74,1.74,0,0,1,1.76-.88c4.8.33,7.64-.94,8.27-2.42.39-.92-.67-1.7-.19-3.5a4.61,4.61,0,0,1,.66-1.42c0-.06.07-.12.11-.17a13,13,0,0,0-.57-2.65,5.61,5.61,0,0,1-1.9-1,1.66,1.66,0,0,1-.05-2.27l.29-.43c.14-.49.37-1,.54-1.45a3.4,3.4,0,0,1,.63-.87c.12-.94.66-4.39,3.51-6.26a7,7,0,0,1,2.5-1c4.16-.79,7.51,1.3,11,3a5.89,5.89,0,0,0,3.91.63,3.67,3.67,0,0,1,4,2.13,9.48,9.48,0,0,0,6.36,5.83,4.71,4.71,0,0,1,.54.12c.18,0,.36.09.55.12a2,2,0,0,1,1.5,1l.46.35c1.7,2.57,2.18,6,6.24,6.76,4.26.78,5.25.54,6.56-3.71.3-.95.36-2,.71-2.91,2.31-3.08,2.34-3.09,5.56-2.61a10.86,10.86,0,0,0-2.68-1.75c-2.42-1.37-4.68-2.88-5.86-5.57a3.24,3.24,0,0,0-.78-1.11,4.65,4.65,0,0,0-3.31-.94,66.66,66.66,0,0,1-12.15-1.06l-.33-.06a24,24,0,0,1-5-1.54"/><path class="cls-1" d="M159.93,189.26a3.39,3.39,0,0,1,.51.29,3.08,3.08,0,0,1,.44.37.86.86,0,0,0,.07.1c2.81,0,5.86-.72,7.81,2.34h0l5.34,5.24h0c1.27.07,1.65-.47,1.45-1.75s-.57-2.7.71-3.74h0a8.65,8.65,0,0,1,2.22-2.48,36.21,36.21,0,0,1,3.18-1.75,10.4,10.4,0,0,0,2.93-2.79v0a6.45,6.45,0,0,1-1.22-3.41c-.11-2.27,1.23-3.42,1.87-6.63a14.75,14.75,0,0,0,.28-3.06c.42-1.43-1.11-2.37-.92-3.74a3.24,3.24,0,0,1-.62-2.16,3.79,3.79,0,0,1,1.53-2.33,28.17,28.17,0,0,1,4.39-3.3h0c2.35-2.46,5.29-2.5,8.36-2h0c2,.64,3.61.61,4.28-1.34l.22-.94a.46.46,0,0,1-.07-.52v-.05c-2.37-3.45-3-6.9,0-10.36a6.71,6.71,0,0,0,.91-4.25,6.63,6.63,0,0,0-1.08-2.86h0a4.85,4.85,0,0,1-2-2.22,2.91,2.91,0,0,1-.27-1c-.33-1.49-.47-3-1.53-4.27h0l-6.36-4.71h0a104.85,104.85,0,0,0-11.4-6.11v.05c-3.15,0-4.91-.92-5.94-1.82a28.27,28.27,0,0,0-5.25-4.52h0c-2.12-1.31-4-4.42-5.46-10.22h0a49.9,49.9,0,0,1-2.38-5c-.53-1.28-2.13-3.2-6.78-6h0A73.09,73.09,0,0,1,146.85,90c-.92-.3-1.81-.61-2.68-.94h0l-2.06-.87h0c-2.78-.94-5-2.82-7.14-4.68a10.26,10.26,0,0,0-7.45-2.85h0L122,82.06h0c-.43.12-1,.29-1.8.45-.27.06-.71.16-1.13.23a18.59,18.59,0,0,1-4.51,0,5.51,5.51,0,0,1-1.08-.15h0a5.83,5.83,0,0,1-1.21-.56h0a9.26,9.26,0,0,1-2.56-2,6.61,6.61,0,0,1-1.34-2.09c-.13-.33,0-.19-.49-1.85a13.53,13.53,0,0,1-.32-1.58v0c-1.09-2.78-3.64-3.89-6-5.24-.32-.09-.83-.22-1.47-.34-1.87-.33-2.58-.12-3.64-.52A4.85,4.85,0,0,1,94.54,67c-1.69-1.3-8.06-6.29-11.35-10.45a5.3,5.3,0,0,1-1.39-3.7c.2-2,1.63-3.17,3.27-2.89,4.09.7,6.34-1.23,7.66-4.86a4.13,4.13,0,0,1,2.76-2.39h0A4.49,4.49,0,0,1,99.16,41h0a18.12,18.12,0,0,0,2.68-.83,17,17,0,0,0,2.7-1.33h0a23.33,23.33,0,0,0,4.86-4.64c1.83-2.38,2.52-4.27,5-6.38a15.83,15.83,0,0,1,2.79-1.92h0a5.15,5.15,0,0,0,1.06-.62,2.32,2.32,0,0,0-.59-.54,5.13,5.13,0,0,0-.77-.4,17.61,17.61,0,0,1-2.15-.78,6.33,6.33,0,0,1-1-.44l-.37-.19c-.87-.36-1.73-.74-2.59-1.12h0a17.84,17.84,0,0,1-5.54-2.35h0c-1-.36-1.94-.69-2.94-1h0a20.37,20.37,0,0,0-9.78-1.9,18.87,18.87,0,0,1-7.89-1.33c-5-1.95-10.16-3.66-15.12-5.75C67,8.45,64.3,7.2,63.65,4.22l-.34-.59c-3.12-2.7-6.45-4.69-10.79-3l0,0a22.9,22.9,0,0,0-2.25,2.89h0A45.63,45.63,0,0,1,47.5,8.63h0c-.61,1.35-1.18,2.71-1.76,4.08a6.81,6.81,0,0,1-.42,1h0C44.39,15,43.83,16.57,43,18c-1.67,2.63-3,5,.7,7.48,2.2,1.49,1.79,5.62,0,7.92-1.7,2.13-4.65,2.58-7.54,1.28C35,34.14,33.8,32,32.56,34.49v0c.23,1.35,1.63,1.3,2.42,2a26.15,26.15,0,0,1,3.29,3.11c3,3.23,3.2,4.24.43,7.65-1,1.26-.76,2.59-1,3.88-.75,3.51-3,4.6-6,2.85-4.75-2.73-4.75-2.73-8.57,1.53a1,1,0,0,1-.35.26,7.09,7.09,0,0,1-3.26,1.45c-2,.13-3.56-1.8-3.64-1.87-1.23-1.07-1.32-2.91-2.6-3.94-1.75-1.21-2.9-.5-4.06,1A9.2,9.2,0,0,1,0,56.06c.36.33.91.81,1.61,1.34,3.56,2.67,7.46,2.88,9.38,4.24,2.09,1.48,4.41,1.49,6.87,1.32,3.81-.27,4.67.6,4.89,4.29.16,2.64,1.48,3.77,4.31,3a15.87,15.87,0,0,1,8.91.49c6.77,2.06,10.42,7.62,9.42,14.63-.45,3.2.36,6.26.57,9.39h0a18.71,18.71,0,0,1-.33,4c-.28,1-.66.76-1,1.71a4.82,4.82,0,0,0-.09,2.67h0a5.68,5.68,0,0,1,5,1.06l0,0c2.12,4,1,6.93-4,10.53h0a29.4,29.4,0,0,0-7.49,4.44,9.86,9.86,0,0,1-.84.6h0c-2.51,2.11-5.46,3.63-7.91,5.82-2.13,1.81-4.48.53-6.74.48h0a2.4,2.4,0,0,0-1.5,2.72c0,1.79,1.13,3,2.12,4.26,2.15,2.84,1.71,5.62,0,8.63a23.93,23.93,0,0,1-5.46,6.51c-2.83,2.45-4.2,2.79-6.55,5.45A23.9,23.9,0,0,0,9,156.6v.05a6.32,6.32,0,0,0,1.78,2.16,19.28,19.28,0,0,1,2.55,2.79,4.23,4.23,0,0,1,.1,4.29c-1.06,2.05-.85,8.38-.34,12.3A42.89,42.89,0,0,0,19,194.48a13.3,13.3,0,0,0,1.75,3.42h0c1.19,1.94,7,12.21,8.9,15.33a46.91,46.91,0,0,0,9,10.53h0a28.54,28.54,0,0,1,5.69,10v0c-.29,2.88.63,4.67,3.9,4.73,1.2,0,2.29.83,3.42,1.31a7.53,7.53,0,0,1,1,.5h0a27.91,27.91,0,0,0,13.31,3.16,9,9,0,0,1,4.28,1.06A15.91,15.91,0,0,0,73.53,246a9.81,9.81,0,0,0,2.48.32,6.14,6.14,0,0,0,2.95-.5c3-1.67,5.79-1.25,8.55.54a4.13,4.13,0,0,0,1.64.54c9.63.75,16.24,7.56,24,12,2.18,1.44,1.71,4.31,3.3,6.07h0c1.61,1.22,3,1.76,4.23,1.58s2.37-1.91,3.52-2.5a5.89,5.89,0,0,0,.77-.5,4.82,4.82,0,0,0,.68-.66c.43-2.1.85-4.22,1.24-6.36.06-.31.12-.61.17-.92v0l.5-.63v0c.43-2.5,2.06-5.06-.31-7.46l0,0a6.88,6.88,0,0,1-1.45-1.49,7,7,0,0,1-1.2-2.89h0s-.53-.73-1-1.35l-1-1.36h0a9.78,9.78,0,0,0-4.48-1.84,10.87,10.87,0,0,1-2.19-.29,5.32,5.32,0,0,1-1.86-1.18h0c-1.85-.05-3.71,1.09-5.49.23s-3-2.62-2.45-4.58c.61-2.12.47-5,3.49-5.68a30.42,30.42,0,0,1,4-.75c6.62-.2,6,.2,7.31-.13a24.5,24.5,0,0,0,6.71-3.25h0a1.25,1.25,0,0,0,.4-.78v0c-.61-3,.56-5.89.48-8.85a3.32,3.32,0,0,0-.79-1.79,20.16,20.16,0,0,0-3.4-2.94h0c-.51,0-1,0-1.53-.09a4.49,4.49,0,0,1-1.65-.57,5.26,5.26,0,0,1-1.35-1.24,6.77,6.77,0,0,1-1.66-2.78,3.28,3.28,0,0,1,0-2.61,8.94,8.94,0,0,0,.22-3.54v0a6.73,6.73,0,0,0-.63-1.18,5.67,5.67,0,0,1-.44-1.12,30.68,30.68,0,0,1-1-7.77h0a19.73,19.73,0,0,0-.17-2.64c-.42-3.17-1.34-4.42-1.66-7.2a15.17,15.17,0,0,1,0-3.59h0a2.56,2.56,0,0,1,.61-.91,2.86,2.86,0,0,1,.44-.15c1.46-1,2.17-.19,2.8.83l0,0a5.34,5.34,0,0,0,.71.37,14.33,14.33,0,0,1,1.84,1.12,4.66,4.66,0,0,1,1.09,1.25,4.23,4.23,0,0,1,.23.48,2.12,2.12,0,0,1,.6,1.71c0,.07,0,.12,0,.19.07.38.12.77.16,1.16a11.24,11.24,0,0,0,1.76,5.6h0a10.85,10.85,0,0,0,3.11,2.41h0a12.46,12.46,0,0,0,4.25.81h0c3,.56,5.89.87,8.83-.34a5.78,5.78,0,0,1,4.73.39h0c1.39.86,2.76,1.93,4.4.46h0l.5-.19S155.92,187.44,159.93,189.26Z"/><path class="cls-2" d="M121.64,27.28a3.58,3.58,0,0,1,4.36-.63c4.9,2.1,9.89,4,14.85,6a15.44,15.44,0,0,0,5.53,2.28A52.47,52.47,0,0,0,157,39.34a15.74,15.74,0,0,0,6,2.38L164.66,43a22.87,22.87,0,0,0,8.51,4.08l1.8.76a6.43,6.43,0,0,0,5.57-.12c1.84-.94,3.71-1.85,5.5-2.89,4.53-2.64,9-5.34,13.51-8,3.38-2,6.74-4.08,10.12-6.12,2-1.16,4-2.27,5.9-3.49a6.74,6.74,0,0,1,7.58-.11c1.55.93,3.1,1.86,4.7,2.7a7,7,0,0,0,3.87,1c1,.1,2,.15,3,.3,3,.46,5.69,1.74,8.47,2.81,4.31,1.66,8.54,3.5,12.13,6.51,1.15,1,2.21,2,3.31,3.07A8.31,8.31,0,0,0,263.46,46l.5.05a.85.85,0,0,0,.41.09,3.27,3.27,0,0,0,1.49-.08h0a7.36,7.36,0,0,0,1.16-.15,60.77,60.77,0,0,0,8.41-3.43c1.47-.66,2-.53,2.2,1.06A10,10,0,0,0,279.2,48l13.08,9a3.26,3.26,0,0,0,1.85-.09,5.72,5.72,0,0,1,1.61-.27,6.05,6.05,0,0,1,2.77.69c1.37.68,3.62,2.29,3.47,4,0,.29-.16.22-.25.92a36.07,36.07,0,0,1-.55,4.39,11.18,11.18,0,0,0-.26,3,4.67,4.67,0,0,0,2.4,4.18,17.5,17.5,0,0,1,1.92,1.36c2.64,1.67,4,2.51,5.38,2.9a11.3,11.3,0,0,0,1.6.31c.58.07.81,0,1.13.08a2.63,2.63,0,0,1,.56.14c0,.2-.09.5-.15.87,0,0-.76,4.78-1,9.75-.65,12.3-.36,35.66-.36,35.66,0,6,0,12.9,0,21.61.09,13.17-.11,23.57-.32,33.82-.24,12.22-.59,22.61-.9,30.48-.95,4-.49,8.5-4.34,11.45-.51.39-.59,1.64-.51,2.45a3.87,3.87,0,0,1-1.26,3.32h0l-6.74,2.38a5.36,5.36,0,0,1-1.56.66,5,5,0,0,1-.69.12,10.09,10.09,0,0,0-6.16,2.24,12.2,12.2,0,0,1-8.95.64,7.49,7.49,0,0,0-1.07-.27c-1.7-.39-2-.14-3.28-.39-1.83-.37-2.36-1.17-3.34-.93a5.71,5.71,0,0,0-1.4.57,3.13,3.13,0,0,1-.74.33,3.36,3.36,0,0,1-.75.13l-.65,0a43.88,43.88,0,0,0-5,.07,29.67,29.67,0,0,0-8.84,2.14c-3.84,3.53-9.59,4.72-11.91,10.18-1,2.44-2.76,3.82-5.35.91-2-2.24-5-2.78-8-2.94a13.28,13.28,0,0,1-5.43-1.36c-2.49-1.26-2.8-2.81-.58-4.53,1.55-1.2,2.82-2.47,3.15-4.48a2.13,2.13,0,0,1,1.68-1.86c5-.76,8.05-4.89,12.21-7.08,2.95-.53,4.46-2.06,3.73-5.24-.6-2.64-2.75-4.49-4.81-3.59-4.2,1.81-4.87-1-6.24-3.48-.72-1.3-1.75-2.42-2.59-3.66C228.3,203.46,223,199,225,191.67c.09-.33-.43-.83-.67-1.26h0c-.65-1.69-1.31-3.39-.77-5.26l1.92-2.69c2-2.86.8-6.21.54-7.3a12.63,12.63,0,0,0-4.08-6.62,5.89,5.89,0,0,0-2.44-1.56c-3.69-.75-6.65,4.81-9.91,3.79a3.12,3.12,0,0,1-1.72-1.28c-2-2.66-5.6-4.79-4-9.09a5.19,5.19,0,0,0,2.19-4c0-.08.12-.18.11-.26a3.11,3.11,0,0,0-.16-.49,8.62,8.62,0,0,0-2.24-4.41c-1.37-1.85,0-3.26.76-4.76a8.42,8.42,0,0,0,1.49-2.13,7.05,7.05,0,0,0,.77-4.38,8.05,8.05,0,0,0-2-3.71,12.74,12.74,0,0,0-1.74-1.77c-.34-1.82.55-4-1.5-5.32h0a12,12,0,0,0-4.48-3.93,31.15,31.15,0,0,0-9.75-6.7c-.75-.39-1.9-1-3.33-1.57-1.8-.76-3-1.14-4-1.5a43.06,43.06,0,0,1-6.38-2.89l-1.62-1.52a4.87,4.87,0,0,0-.89-1.45c-.83-.92-1.34-.75-2-1.49s-.38-1.49-1.08-2.89a6.38,6.38,0,0,0-1.24-1.69c-.15-.47-.3-.94-.44-1.41-.31-2.3-.66-4.57-2.37-6.34a20.35,20.35,0,0,0-4.12-4.37c-1-1.71-2.62-2.09-4.4-2.2l-1.63-.8c-2.25-1.53-4.8-1.72-7.4-1.66l-6-3a6.79,6.79,0,0,0-2.93-2.2,9.76,9.76,0,0,0-3.42-3c-2.9-1.5-4.93-.41-10.92-.15-8.82.37-11.12-1.69-11.89-2.53a6.43,6.43,0,0,1-1.13-1.67h0c-1.14-2.16-1.49-4.83-4-6.14-1.63-1.74-3.66-2-5.85-1.53-6-2.64-10-7.61-14.53-12.06-.5-.49-1.26-1.11-.82-1.92s1.33-.56,2-.54c1.94.06,3.92.14,5.34-1,.57-.46.52-.68,1.35-1.89a23.23,23.23,0,0,1,7.2-6.31c.75-.48,1.38-.85,1.81-1.09a14.38,14.38,0,0,0,2.73-.86,15.73,15.73,0,0,0,6.93-6.1,20.75,20.75,0,0,1,5.7-5.64A19.63,19.63,0,0,1,121.64,27.28Z"/><path class="cls-1" d="M573.29,416c-2-2.21-2.48-5.51-5.07-7.31-1.11-.67-2.35-1.16-3-2.4-2.65-.37-5.29-.74-6.66-3.22l-.38-.45a6.07,6.07,0,0,1-.64-.8,3.6,3.6,0,0,0-1.72-1.68c-.3-.14-.59-.31-.88-.48-1.16-.55-2.29-1.18-3.44-1.75l-3.8-1.47-.39-.09-1.61-.68q-3.35-1.42-6.48-2.92l-10.18-4.52c-.31,0-.5-.16-.59-.52h0a3.35,3.35,0,0,1-2.21-2.58l0,.07h0c-1.59-1.39-1.82-3.42-2.48-5.25l-1.23-1.65a15,15,0,0,1-6.29-2.15c-.57.15-1.09.15-1.39-.48h0c-2-1.39-2.18-3.5-2.18-5.67l-.17-.2.09-.24h0c-1.36-1.44-1.32-3.41-1.72-5.15a9.61,9.61,0,0,0-2.75-5c-4.42-2.23-8.52-4.89-11.49-9a2.17,2.17,0,0,1-1.44-1.36h0c-2.17-2.75-4.45-4.24-8.26-2.48-2.72,1.25-5.24-.68-7.5-2.29l-4.84-2.15h0c-2.36-.55-3.84-2.51-5.83-3.65h0a2.25,2.25,0,0,0-1.59-.67c-1.89.11-2.17,3.45-4.78,4.19a9.66,9.66,0,0,1-2.36.27c-1.19-.18-2.51-.18-3.31,1.08-1.44,1.4-2.91,1.53-4.4.09a3.5,3.5,0,0,0-1.3-.95c-1.91-.78-4,.53-4.92,1.11a11.62,11.62,0,0,0-3.68,4.08c-.3.47-.51.89-.66,1.18a3.15,3.15,0,0,1-.56,2.2,3,3,0,0,1-1.27.85,9.29,9.29,0,0,0-3.43,3.25c-1.09,1.47-1.41,3.75-2.06,8.33-.29,2-.44,3.84.2,4.11a.68.68,0,0,0,.31,0c3,.22,5.8.68,6,4.58.93,3-2.1,4.87-2.28,7.58.38.68,1.4,2.73.63,4.56a8.47,8.47,0,0,1-1.56,2.15,12.49,12.49,0,0,1-1.59,1.49,3.22,3.22,0,0,0-.6,1.31c0,.1-.11.24-.19.4-.79,1.5-2.79,3.51-4.85,3.07a4.17,4.17,0,0,1-2.57-2.33,6.7,6.7,0,0,0-3.65-.56,6.09,6.09,0,0,1-5.37-2.17,20.15,20.15,0,0,0-8.39-5.5,16.09,16.09,0,0,1-9.08-8.89h0c0-.4.42-5.65-3.53-8.69a10.11,10.11,0,0,0-7.8-1.67c-2.41.44-2.77,1.68-4.78,1.84-3,.24-5.82-1.26-8.62-3.18h0c-3.3-2.32-5.82-5.22-6.81-9.25l0-.72c-.52-1.48-.11-3.07,0-4.63a12.38,12.38,0,0,0-.17-1.71,7.17,7.17,0,0,0-1.38-1.53l-.71-.26c-1.93-.15-2.86-1.57-3.8-3h0c-1.78-.34-2.14-1.63-2.14-3.17l-1.08-5.09c-.84-.26-1.37-1.39-2.59-.43-4.21,3.29-4.25,3.24-7.77-.39a4.66,4.66,0,0,1-3.79-3l-6.11-5.85a7,7,0,0,1-3.79-3.5c-1.47-3.32-3.44-6-7.05-7.26-1.46-.53-2.19-1.78-.56-3.16.4-1.42,1.3-2.75.75-4.33-2.24-.79-4.77-.33-6.91-1.56l-1.25-.08c-1.8.16-3.47.08-4-2.13-1.48-1.14-1.21-2.8-1.1-4.32a4.23,4.23,0,0,0-1.8-4c-1.45.07-3.75.17-6.57.28-9.43.37-12.69.38-15.61-1.72a10.53,10.53,0,0,1-1.89-1.75c-5.26-1.7-10.52-1.28-15.79,0-1.48.35-1,1.47-1.05,2.4,0,1.64.1,3.29-1.32,4.5h0c-.27.47-.55.93-.82,1.39-3.36,4.9-4,4.9-9.45,4.14-4-.56-8.11-.31-12.17-.29a7.15,7.15,0,0,1-4.17-1.12,7.87,7.87,0,0,1-2.83-4.24c-2.92-8.63-6.73-8.7-7.49-15.46-.06-.6-.08-3.79-.11-10.16,0-1.29,0-2.34,0-3,.46-3.24,3.21-2.57,5.27-3.08a3.79,3.79,0,0,0,1.87-1.75,2.85,2.85,0,0,0,.27-2.18,2.15,2.15,0,0,0-.46-.75,13.69,13.69,0,0,0-3.21-2.54,4.48,4.48,0,0,1-2.2-3.31c-.49-4.43-1.17-5.1-5.6-5.72-3.32-.45-6.65-.61-9.48-2.85s-3.43-5.18-1-8c1.2-1.41,2.83-2.49,3.23-4.48a15.89,15.89,0,0,1,3.25-3.46c3.19-2.48,6.89-2.63,9.22-4.41,1.35-1,2.63-2.25,2.63-2.25l.58-.55a.79.79,0,0,0,.43-1,.64.64,0,0,0-.47-.27,6.62,6.62,0,0,1-1.29.2,7,7,0,0,1-3.92-1c-1.41-.83-2.26-2.24-3.83-5.07-.64-1.15-1.22-2.33-1.81-3.51l-6.59-10.27c-.4-.72-.8-1.44-1.18-2.16a14.15,14.15,0,0,1-.54-4c0-1.27.27-4.53,0-5.38a7.53,7.53,0,0,1-.24-1,3.63,3.63,0,0,1,0-1.14,22.62,22.62,0,0,1,.51-2.5,9.88,9.88,0,0,1,2.38-4.12,3,3,0,0,0,1.05-2.16,2.21,2.21,0,0,0-1.05-1.34c-3-2.09-3.16-4.38-5.3-5.1-3.31-1.1-5.33,3.7-9.28,2.86-2.22-.48-3.75-2.2-5.23-4.24-1.17-1.62-2.26-3.3-3.29-5-1.26-2.09-2.11-3.2-3.21-3.57-1.86-.62-3.92.52-4.64.91a17.73,17.73,0,0,0-2.66,1.91c-.5.41-.9.77-1.17,1a2.6,2.6,0,0,0-1.17,1.55c.12.58.37,1.16.52,1.74l.21.17a3.06,3.06,0,0,1,.57,1c.07.3.1.59.15.89,0,.11,0,.22.05.33s0,.14,0,.21a.76.76,0,0,0,0,.15,12,12,0,0,1-.27,3.62,18.31,18.31,0,0,1-.8,2.18,5.2,5.2,0,0,0-.8,1.82.36.36,0,0,0,0,.1A12.25,12.25,0,0,0,187,184l0,0a2.84,2.84,0,0,1,0,3.57c0,.13,0,.25-.09.38a3.46,3.46,0,0,1-2.86,2.23,4,4,0,0,1-.85,0l-3.28,2.16a2.89,2.89,0,0,0-.48.68c-.16.28-.33.55-.5.83a3.47,3.47,0,0,0-.35,1.35c.2,1.35.65,2.73,0,4a3.83,3.83,0,0,1-.17.43,2.63,2.63,0,0,1-.6.8,1.71,1.71,0,0,1-2,.92,4.56,4.56,0,0,1-1.61.06,9.28,9.28,0,0,1-3.25-1.66,2.9,2.9,0,0,1-1.37-2.1c-.81-1.14-1.63-2.28-2.44-3.43-1.86-2.15-4.8.05-6.77-1.67-.33-.12-.66-.21-1-.3-2.48,0-5.12-1.5-7.37.78-.15,2.25,1.71,2.06,3,2.45,3,.91,5.82,2.07,7,5.35a3.85,3.85,0,0,0,1,2.11l.38.07a7.3,7.3,0,0,1,4,2.62l2.19,1.48.26.17a1.3,1.3,0,0,1,.1.15,10.76,10.76,0,0,1,5,3.88c.39.58,3.14,4.85,4.18,5.11a5.13,5.13,0,0,1,.73.24,5.39,5.39,0,0,1,.76.38,22,22,0,0,0,2,1.52l3.83,1.89A12,12,0,0,0,190,221c.37.11.86.17,1,.45,2.89,4.88,7.66,3.79,12.06,3.79,3.7,0,7.47-.31,9.24,4a13.73,13.73,0,0,0,3.08,4.09c1.07,1.08,2,2.24,1.66,3.9-.09,1.95-3.6,3.66-.38,5.84a5.81,5.81,0,0,1,.56.65,2.8,2.8,0,0,1,1.43,1.91,2.2,2.2,0,0,1,0,.44c.14.26.29.52.44.77s.35.57.51.86a15,15,0,0,0,1,1.73,31.18,31.18,0,0,1,3.42,3.93c.69.64,1.4,1.27,2.13,1.88a5.4,5.4,0,0,1,1,1.29c.54.91,1.07,1.82,1.55,2.75a11.13,11.13,0,0,1,1.74,4.42,13.33,13.33,0,0,1,.4,3.92,7.61,7.61,0,0,1-1,2.61c-.42.55-.88,1.07-1.35,1.59-1,1.82-2.64,3.25-3.74,5a5.83,5.83,0,0,0-.23.58c-.1.17-.19.34-.28.51a1.17,1.17,0,0,1-.19.39c0,.08-.06.16-.1.24-.09,1.19-.43,2.39-.47,3.56a10.74,10.74,0,0,0,.81,2.72,4.94,4.94,0,0,0,1,1,2.26,2.26,0,0,1,.55,2.09c.19.36.37.72.55,1.08,2.89,2.28,6.16,4.27,6.66,8.43.36,1.43,1.58,1.91,2.74,2.45l.5.26A18,18,0,0,1,240,302a11,11,0,0,0,2,.56,6,6,0,0,1,3.54,1.92c2.26,3.27,5.23,3.22,8.54,2.27a8.54,8.54,0,0,1,5.82.47c2.05.53,4.1,1.1,6.14,1.66a48.1,48.1,0,0,1,6.62,1.63c1.7.37,3.4.69,5.12.92,4.6,1,9.16,2.24,13.8,3.09a6.37,6.37,0,0,1,4.24,2.11,1.22,1.22,0,0,1,.15.4,7.93,7.93,0,0,1,3.92.74,6.38,6.38,0,0,0,2.3-.09c5.61-.44,12.33,5,13.74,11.58.68,3.18,2.46,4.5,5.33,4.81,5.56.6,10.65,2.65,15.68,4.9.41.24.83.46,1.24.69a10.14,10.14,0,0,1,2.35,1.06c1.14.59,2.25,1.21,3.38,1.8q2.79,1.25,5.66,2.36c.52.14,1,.26,1.58.35a3.74,3.74,0,0,1,2.28,1.09l.53.2c2.38,1.26,4.23,3.23,6.43,4.74,7.46,6.2,11.09,9.52,12.95,11.4a4.54,4.54,0,0,0,1.6,1.41c2.41,1.08,5,1.73,7.32,3a12.27,12.27,0,0,1,7.11,7.37c.28.82.48,1.79,1.47,2.06,6.25,1.69,8.89,7,11.94,11.89a9.62,9.62,0,0,0,5.24,5.35,19.27,19.27,0,0,1,6.52,8.53c2.06,4.83,3.82,9.64.53,14.72-.84,1.3,0,2.65.88,3.81s2.31,1.94,3.25,3.13a3.07,3.07,0,0,1-.85,4.34c-1.06.82-1.2,1.53,0,2.3a4.89,4.89,0,0,1,.74.77c.74,2.11,1,3.54.54,4.74-.55,1.5-2.33,1.33-3.08,3.08-.12.3-.78,1.95.12,2.91a2.66,2.66,0,0,0,2.34.51,3.06,3.06,0,0,1,1,.68,2.42,2.42,0,0,1,.29,1.6,2.54,2.54,0,0,1-.5,1c-.11,0-.21.1-.32.15-.3.5-.88.71-1.34,1.07-1.06.83-2.33,1.47-3.48,2.22-.59.48-1.17,1-1.77,1.43a5.06,5.06,0,0,0-1.32,2.73,6.26,6.26,0,0,1,0,1.68c0,.23,0,.46.08.71.27,1.64-.92,3.3-2.29,4.82a13.5,13.5,0,0,0-.77,1.9c-.7,2.36-2.66,2.79-4.72,3.06-2.69.34-4.75,1.32-5.41,4.34-.4,1.86-2.17,3.05-2.95,4.78-1.45,3.19-.92,4.81,2.27,6.24a9.23,9.23,0,0,1,4.2,3.63,13.43,13.43,0,0,0,.93,1.71,3.69,3.69,0,0,1,.43.53,3,3,0,0,0,.63.53,7.07,7.07,0,0,1,.71.74c.58.69,1.18,1.36,1.79,2a69.13,69.13,0,0,1,5.84,6.14c.67.69,1.34,1.37,2,2.07a9.19,9.19,0,0,1,.67.73,8,8,0,0,0,.63.78,5.29,5.29,0,0,1,.41.41,6,6,0,0,0,.59.54,5.55,5.55,0,0,1,.69.68,4.14,4.14,0,0,0,.37.46,3.49,3.49,0,0,1,.8.78c.32.28.65.54,1,.82a4.6,4.6,0,0,1,.7.83,6.45,6.45,0,0,0,1.41,1.62,8.7,8.7,0,0,0,5.77,1.19l.41-.08c.66-.15,1.32-.26,2-.35,6.38-1.1,12.53.63,18.63,2.39a2.52,2.52,0,0,1,.83.44,9.46,9.46,0,0,1,1.82.93l.56.35a1.57,1.57,0,0,1,1.39.5c1.21,1.22,2.93,1.69,4.28,2.7.41.18.82.34,1.24.48a13.57,13.57,0,0,1,1.45.79l1.35.64a21.77,21.77,0,0,1,3.1,1.36c.69.29,1.4.55,2.11.79h.05a24,24,0,0,0,3.6.92,4.41,4.41,0,0,0,2.37-.1,1.79,1.79,0,0,0,.25-.23,5.57,5.57,0,0,0,1.12-3.89c0-.58-.07-1.17-.07-1.75s-.09-1.24-.12-1.82a6.43,6.43,0,0,0-.34-1.34,2.06,2.06,0,0,1-.31-.28.42.42,0,0,1,0-.1,2.25,2.25,0,0,1,.14-3.28,5.4,5.4,0,0,0,.66-.9c.6-1.56-.15-2.79-1.3-4-2.36-1.42-1.63-3.72-1.54-5.84,0-.55.2-1.15.22-1.69-.15-.74-.66-1.22-1.68-1.43a10,10,0,0,1-3.6-2.71,7.79,7.79,0,0,0-1.73-1.21,12.34,12.34,0,0,0-4.47-1.91c-5.41-1.07-9.57-4.22-13.3-8.06-1.15-1.18-2.34-2.5-2.42-4.16-.17-4.11-2.83-6.54-5.61-8.93-1.77-1.53-3.52-3.12-2.61-5.72a6.1,6.1,0,0,1,6-4.39c4.09.29,7.52-1,11.1-2.49a8.37,8.37,0,0,1,7.31,0c.68.3,1.33.61,1.93.95,2.63.48,4.44,2.41,4.42,4.73a10,10,0,0,1,.55,3.93,7.17,7.17,0,0,0,2.83,3.37c.7.22,1.42.41,2,.67a7.37,7.37,0,0,1,1.06.37,9,9,0,0,0,.89.41c3.28-.14,6.1.63,7.65,4.15a6,6,0,0,0,2.07.86c2-1.54,4-.56,6,.1a3.52,3.52,0,0,0,.61-.18c.3-.14.62-.26.93-.39s.67-.31,1-.45c1-.84,2.12-1.27,3.35-.6a4.89,4.89,0,0,1,1.6.49c2.55,1.33,4.24,3.63,6.25,5.57a7.39,7.39,0,0,1,.57.79,2,2,0,0,1,.63.46,2.71,2.71,0,0,1,.48,2.05,19.69,19.69,0,0,0,1.27,7.19,4.12,4.12,0,0,1,.41,1.78c0,1.15-.34,2.18-1.42,2.5-1.21,2.13-.62,3.93.89,5.88,5.21,6.71,4.46,13.45-2,19.47-1.16,1.08-2.83,1.82-2.61,3.84,1,3,3.52,4.48,5.8,6.23.28.19.55.41.82.63a57,57,0,0,0,5.78,4.22,118.63,118.63,0,0,1,16.37,11.28,18.63,18.63,0,0,1,2.53,2.72,20.58,20.58,0,0,1,1.9,3.28c0,.21.12.43.18.64l.17.11c.24,1,.47,2,.71,2.92a3.68,3.68,0,0,1,.74.47,4.48,4.48,0,0,1,1.48,2.1,16.58,16.58,0,0,0,2.11,5.77c1.13,2.73,3.77,4.73,3.8,8a37.88,37.88,0,0,1-.06,4.26c.49-2.5,1.77-5.26.58-7.62-2.2-2.35-3-4.58-3.78-7.56a16.29,16.29,0,0,0-3.11-4.79,13,13,0,0,1-2.13-3.75,6.71,6.71,0,0,1-.19-2.71c1-5.25.55-6.09-3.84-7.7-5.46.94-8.73-2-11.33-6.21-2,.9-3.79.14-5.4-1.52-1.65-2.74-.9-5,1.39-7a41,41,0,0,0,4-1.93c4.09-3.59,9.42-5.63,12.42-10.65a9.13,9.13,0,0,1,6.2-4c4.22-.81,8.4-1.68,11-5.61a1.34,1.34,0,0,1,2.17-.25s0-.07,0-.1a81.41,81.41,0,0,0,.52-27.24c-.29-2-1.47-3.71-1.43-5.7-4.49-4.8-9-9.61-12.15-15.43-2.08-3.85-.76-7.77,2.81-10.42.71-.52,1.33-1.13,2-1.68a6.61,6.61,0,0,0,1.44-1.15,2,2,0,0,0-.73-2.32,1.56,1.56,0,0,1,.09-2.66,7.27,7.27,0,0,1,.22-.8,12.17,12.17,0,0,1,8.17-5.93,9.39,9.39,0,0,0,3.13-1.12c1.49-.9,2.73-2.41,4.53-2.54,5.18-.36,8.5-3.74,11.94-7C573.1,417.46,574.14,416.86,573.29,416Z"/><path class="cls-1" d="M179.24,256.17c-2.62-.53-4.54-1.8-4.51-5.08,0-1.63-1-2.79-1.77-4.1-1.22-2.2-1.76-4.5-.33-6.8s.24-3.18-1.88-3.55a32.62,32.62,0,0,0-4.53-.17,9.34,9.34,0,0,1-4.07-.67c-7.74-3.85-16.14-6.17-23.8-10.21l-.1-.06a30.42,30.42,0,0,1-5.22-4.6.62.62,0,0,0-1.11.39c.05,1.42-.09,2.71-1.34,3.65-1,.76-1.91.94-3.79,1.43-.61.16-1.49.4-2.56.73-1.86,1.19-3.3,3.48-6.06,2.3-2.68-1.84-5.23-.11-7.7.5-1.33.32-1.67,2.16-1.4,3.55.3,1.54,1.63,1.44,2.69,1,2.37-1,3.82.64,5.51,1.65a.66.66,0,0,0,.34.08,8.37,8.37,0,0,1,6.44,2.27,7.06,7.06,0,0,1,2.37,2.85.66.66,0,0,0,.21.23,3.1,3.1,0,0,1,.72.67,5.87,5.87,0,0,1,.75,2c.4,1.92,3.16,1.55,4,3.46.66,1.53-.37,3.61-1.81,7.27l0,0c-.22.49-.45,1-.68,1.46l-.06.22c-.21,2.21,1.08,4.75-1.22,6.5-.13.24-.25.48-.36.74-.34.72-.62,1.41-.86,2.08a4,4,0,0,1-.84,1.69c-.15.34-.38.85-.7,1.46-.58,1.1-.88,1.32-.94,1.82a3.55,3.55,0,0,0,.76,2.4,40.63,40.63,0,0,1,2.51,4.16,22.77,22.77,0,0,0,1.45,2.49l.07.08a24.58,24.58,0,0,1,3.39,4.23l.06.08c.62.7,1.25,1.39,1.88,2.09l0,.05a25.82,25.82,0,0,1,5.08,10.34c.17.84.46,1.82,1.48,2s1.41-.85,1.82-1.58a40.74,40.74,0,0,0,3.3-7.58,17.94,17.94,0,0,1,10.3-11.26c1.51-.68,2.74-1.29,1.53-3.29s-.75-4.13.87-5.85a5.33,5.33,0,0,1,6.25-1.17c1.94.8,3.1,1.05,4-1.3.65-1.71,2.72-2.12,4-3.28,1.68-1.53,2.14-4.07,4.26-5.24.54-.41,1.19-.66,1.81-1.05A.62.62,0,0,0,179.24,256.17Z"/><path class="cls-1" d="M135.49,207.68c.89.22,1.9,0,2.68.64a1.45,1.45,0,0,0,.38.22,5.06,5.06,0,0,0,3.39.09c1.8-.63,2.39-1.75,1.82-3.49a1.24,1.24,0,0,0-.45-.61c-1.11-.77-.45-2.59-2-3.38-3-1.48-5.91-2.31-9.15-1a2.4,2.4,0,0,0-1.22,2.79A5.7,5.7,0,0,0,135.49,207.68Z"/></g></g></svg>
